<?xml version="1.0" encoding="UTF-8" standalone="no"?>
<!-- Created with Inkscape (http://www.inkscape.org/) -->

<svg
   xmlns:dc="http://purl.org/dc/elements/1.1/"
   xmlns:cc="http://creativecommons.org/ns#"
   xmlns:rdf="http://www.w3.org/1999/02/22-rdf-syntax-ns#"
   xmlns:svg="http://www.w3.org/2000/svg"
   xmlns="http://www.w3.org/2000/svg"
   xmlns:sodipodi="http://sodipodi.sourceforge.net/DTD/sodipodi-0.dtd"
   xmlns:inkscape="http://www.inkscape.org/namespaces/inkscape"
   version="1.1"
   id="svg2"
   xml:space="preserve"
   width="1302.6666"
   height="1302.6666"
   viewBox="0 0 1302.6666 1302.6666"
   sodipodi:docname="logo.svg"
   inkscape:version="0.92.5 (2060ec1f9f, 2020-04-08)"><metadata
     id="metadata8"><rdf:RDF><cc:Work
         rdf:about=""><dc:format>image/svg+xml</dc:format><dc:type
           rdf:resource="http://purl.org/dc/dcmitype/StillImage" /><dc:title></dc:title></cc:Work></rdf:RDF></metadata><defs
     id="defs6"><clipPath
       clipPathUnits="userSpaceOnUse"
       id="clipPath18"><path
         d="M 0,1080 H 1920 V 0 H 0 Z"
         id="path16"
         inkscape:connector-curvature="0" /></clipPath><clipPath
       clipPathUnits="userSpaceOnUse"
       id="clipPath114"><path
         d="m 1227.99,638.811 h 31.81 v -48.098 h -31.81 z"
         id="path112"
         inkscape:connector-curvature="0" /></clipPath><clipPath
       clipPathUnits="userSpaceOnUse"
       id="clipPath142"><path
         d="m 1131.1,659.325 h 42.27 v -39.17 h -42.27 z"
         id="path140"
         inkscape:connector-curvature="0" /></clipPath></defs><sodipodi:namedview
     pagecolor="#ffffff"
     bordercolor="#666666"
     borderopacity="1"
     objecttolerance="10"
     gridtolerance="10"
     guidetolerance="10"
     inkscape:pageopacity="0"
     inkscape:pageshadow="2"
     inkscape:window-width="1400"
     inkscape:window-height="831"
     id="namedview4"
     showgrid="false"
     inkscape:zoom="0.16388889"
     inkscape:cx="-649.34462"
     inkscape:cy="651.33334"
     inkscape:window-x="0"
     inkscape:window-y="0"
     inkscape:window-maximized="1"
     inkscape:current-layer="g10"
     fit-margin-top="0"
     fit-margin-left="0"
     fit-margin-right="0"
     fit-margin-bottom="0" /><g
     id="g10"
     inkscape:groupmode="layer"
     inkscape:label="zw_stickr (1)"
     transform="matrix(1.3333333,0,0,-1.3333333,-628.66665,1371.3333)"><g
       id="g12"><g
         id="g14"
         clip-path="url(#clipPath18)"><g
           id="g20"
           transform="translate(1448.5,540)"><path
             d="m 0,0 c 0,-269.791 -218.709,-488.5 -488.5,-488.5 -269.791,0 -488.5,218.709 -488.5,488.5 0,269.791 218.709,488.5 488.5,488.5 C -218.709,488.5 0,269.791 0,0"
             style="fill:#013246;fill-opacity:1;fill-rule:nonzero;stroke:none"
             id="path22"
             inkscape:connector-curvature="0" /></g><g
           id="g24"
           transform="translate(757.7061,256.4258)"><path
             d="M 0,0 C -25.238,50.082 -53.561,98.589 -78.834,148.645 -81.208,114.661 -83.478,80.671 -85.622,46.672 -57.833,15.159 -23.905,-10.811 14.294,-29.362 9.646,-19.518 4.898,-9.721 0,0"
             style="fill:#40b9ea;fill-opacity:1;fill-rule:nonzero;stroke:none"
             id="path26"
             inkscape:connector-curvature="0" /></g><g
           id="g28"
           transform="translate(672.2944,467.3506)"><path
             d="m 0,0 c 1.447,-3.075 2.911,-6.141 4.383,-9.203 0.228,3.199 0.453,6.399 0.682,9.599 5.464,76.112 11.609,152.083 19.558,227.979 5.271,50.333 10.705,100.66 15.083,151.078 -58.428,-50.164 -101.438,-117.778 -120.947,-194.761 8.53,-23.654 18.811,-46.74 29.276,-69.496 C -43.069,95.852 -33.91,76.627 -25.253,57.174 -16.78,38.131 -8.878,18.866 0,0"
             style="fill:#40b9ea;fill-opacity:1;fill-rule:nonzero;stroke:none"
             id="path30"
             inkscape:connector-curvature="0" /></g><g
           id="g32"
           transform="translate(1098.209,116.2607)"><path
             d="m 0,0 c -10.696,33.336 -23.129,66.139 -35.231,98.984 -25.945,70.412 -52.733,140.509 -79.624,210.565 -27.025,70.403 -54.157,140.767 -80.651,211.374 -25.555,68.105 -50.438,136.351 -72.988,205.513 -14.43,44.261 -28.478,89.357 -36.854,135.345 -14.477,-9.313 -28.413,-19.394 -41.743,-30.194 -6.503,-76.588 -15.081,-152.999 -22.913,-229.464 -9.458,-92.339 -16.243,-184.874 -22.771,-277.457 18.655,-37.711 38.617,-74.768 58.693,-111.737 25.188,-46.381 50.591,-92.674 73.824,-140.077 5.93,-12.1 11.811,-24.264 17.532,-36.5 58.481,-26.097 123.265,-40.613 191.442,-40.613 17.335,0 34.448,0.949 51.297,2.778 C 0.009,-0.988 0.004,-0.494 0,0"
             style="fill:#40b9ea;fill-opacity:1;fill-rule:nonzero;stroke:none"
             id="path34"
             inkscape:connector-curvature="0" /></g><g
           id="g36"
           transform="translate(1024.7197,305.9033)"><path
             d="M 0,0 C -13.222,5.881 -27.43,11.532 -42.474,16.435 -49.537,18.717 -56.785,20.903 -64.202,22.8 -29.067,14.597 5.493,-1.394 28.419,-13.466 19.533,-8.991 10.042,-4.449 0,0 m -190.214,12.1 c -4.54,6.792 -8.929,13.538 -12.986,20.326 -1.98,3.344 -3.869,6.702 -5.664,10.071 7.273,-9.067 13.91,-19.595 19.601,-31.829 -0.318,0.476 -0.633,0.957 -0.951,1.432 m -128.08,240.273 -1.177,-2.746 c -0.069,0.043 -0.136,0.088 -0.205,0.131 0.041,1.047 0.345,1.999 1.382,2.615 m 45.448,29.127 -10.109,-5.997 -8.451,-5.164 c 7.299,4.643 13.811,8.823 15.821,9.776 0.914,0.434 1.818,0.897 2.739,1.385 m 8.363,9.25 c -2.654,-0.852 -5.561,-1.452 -8.361,-1.255 -2.717,0.192 -5.012,1.591 -5.972,4.209 -0.975,2.66 -0.474,5.476 0.489,8.064 1.071,2.879 2.557,5.643 4.023,8.338 1.461,2.686 3.033,5.311 4.709,7.868 1.632,2.488 3.373,4.899 5.184,7.26 0.458,0.599 0.918,1.198 1.373,1.8 0.613,-0.811 1.79,-1.17 2.815,-0.852 1.892,0.587 2.803,2.885 3.691,4.452 0.601,1.061 1.203,2.123 1.804,3.185 0.441,0.778 1.142,1.674 1.069,2.622 -0.118,1.534 -1.92,1.498 -3.329,1.146 1.042,1.473 1.886,3.112 2.999,4.538 0.774,0.261 1.615,0.387 2.453,0.45 4.527,-8.693 3.716,-13.493 -3.131,-21.177 -1.581,-1.773 -2.473,-3.918 -3.036,-6.208 0.974,0.172 1.948,0.345 3.048,0.54 -2.453,-7.055 -5.204,-13.644 -6.981,-20.486 -0.392,-1.513 -0.929,-2.836 -1.583,-4.031 -0.42,-0.158 -0.836,-0.325 -1.264,-0.463 m 6.597,45.265 c 0.067,0.009 0.136,0.022 0.206,0.057 0.65,0.327 1.353,0.5 2.083,0.474 0.305,-0.01 0.728,0.027 0.707,-0.36 -0.016,-0.294 -0.237,-0.596 -0.375,-0.842 -0.768,-1.367 -1.547,-2.73 -2.32,-4.094 -0.638,-1.125 -1.209,-2.493 -2.172,-3.386 -0.417,-0.387 -0.915,-0.643 -1.495,-0.555 -0.441,0.066 -0.933,0.331 -0.978,0.816 0.932,1.276 1.825,2.58 2.599,3.959 0.701,1.251 1.3,2.566 1.745,3.931 m 5.732,7.719 c -0.108,-0.012 -0.216,-0.026 -0.324,-0.041 0.082,0.067 0.148,0.146 0.233,0.211 0.033,-0.058 0.059,-0.112 0.091,-0.17 m 7.278,94.416 4.244,-7.073 c -0.058,0.031 -0.111,0.064 -0.173,0.092 -1.463,2.264 -2.82,4.594 -4.071,6.981 m 8.673,14.018 c 1.199,0.159 1.3,-0.837 1.52,-1.66 l -2.285,1.323 c 0.192,0.171 0.439,0.294 0.765,0.337 m 8.775,-29.166 c -0.029,-0.08 -0.037,-0.152 -0.061,-0.23 l -0.068,0.068 0.048,0.77 c 0.11,-0.206 0.151,-0.413 0.081,-0.608 m 21.148,-13.414 c -0.864,0.554 -1.124,1.533 -0.807,2.42 l 2.444,-3.972 c -0.501,0.596 -1.021,1.157 -1.637,1.552 m 16.607,23.162 -2.182,-2.455 c 0.522,1.079 1.204,2.04 2.182,2.455 m 33.607,-1.418 -4.368,4.103 c 0.296,-0.231 0.597,-0.456 0.883,-0.703 1.25,-1.077 2.423,-2.206 3.485,-3.4 m 3.958,-6.075 c 0.35,-0.819 0.646,-1.665 0.874,-2.547 z m 1.114,-9.945 0.313,0.791 c -0.01,-0.375 -0.053,-0.675 -0.19,-0.73 -0.045,-0.018 -0.079,-0.042 -0.123,-0.061 m -16.44,-36.5 -1.924,3.56 c 0.221,-0.266 0.437,-0.532 0.619,-0.803 0.538,-0.804 0.965,-1.743 1.305,-2.757 m -1.621,-16.4 1.923,5.192 c -0.422,-1.852 -1.064,-3.624 -1.923,-5.192 m -10.609,-18.075 v 0 c 0.104,-0.077 0.206,-0.154 0.31,-0.232 -0.103,0.078 -0.207,0.155 -0.31,0.232 m -48.568,-84.156 h 2.967 c -0.095,-0.078 -0.202,-0.155 -0.323,-0.231 -1.143,-0.718 -1.947,-0.435 -2.644,0.231 m -9.933,124.646 0.088,-3.616 c -0.533,2.857 -1.096,5.711 -1.613,8.572 z m -0.305,37.183 0.011,-0.054 -1.735,-1.952 c 0.282,0.659 0.901,1.348 1.724,2.006 m 61.066,-72.957 c -0.647,-1.215 -1.281,-2.436 -1.908,-3.663 l 0.671,2.014 z m -52.547,-90.749 c -0.024,-0.846 -0.369,-1.642 -0.813,-2.441 z m -10.028,68.315 0.046,-0.137 -0.119,-0.074 c 0.026,0.07 0.048,0.141 0.073,0.211 M 240.94,485.833 c -57.856,80.556 -148.468,137.635 -255.605,145.561 -67.341,4.981 -178.416,2.458 -295.719,-116.851 65.346,36.715 126.378,49.803 178.815,46.69 1.742,-1.995 3.148,-4.099 3.914,-6.405 4.906,-14.773 4.691,-31.492 4.687,-46.974 0,-0.083 30.802,-57.238 30.812,-57.155 1.812,15.158 2.922,76.513 1.009,91.849 -0.624,5.003 -0.381,9.141 0.235,12.728 3.672,-0.879 7.287,-1.839 10.839,-2.884 0.298,-0.837 0.605,-1.677 0.935,-2.523 8.617,-22.076 10.743,-46.037 14.531,-69.431 3.202,-19.779 17.603,-101.223 23.253,-120.446 12.103,14.93 9.543,99.013 6.598,118.007 -2.19,14.125 9.387,30.574 14.027,45.853 3.444,-2.457 6.772,-5.009 9.977,-7.652 0.399,-0.88 0.779,-1.769 1.115,-2.682 3.958,-10.737 2.836,-22.696 5.699,-33.776 0.541,-2.094 4.763,-43.9 7.609,-44.071 1.475,-0.088 -0.471,40.06 0.588,41.09 4.943,4.811 6.222,11.646 6.314,18.469 C 67.656,428.041 60.6,325.434 -54.387,262.807 l -0.546,0.184 c -0.312,31.75 -7.592,41.877 -20.216,57.249 -6.893,-0.068 -2.223,-4.557 -12.122,-35.646 -10.012,-1.842 -17.152,-10.77 -16.207,-20.023 -25.199,20.752 -23.711,27.061 -29.541,23.375 -2.263,-19.772 -2.652,-35.997 14.325,-62.849 -33.518,-12.697 -76.009,-15.127 -117.451,-7.404 -2.165,2.19 -4.402,4.31 -6.859,6.218 -3.46,2.686 -3.499,6.532 -0.91,9.98 5.16,6.87 10.227,13.817 14.502,21.274 1.257,2.193 2.759,2.688 5.08,3.219 5.728,1.312 11.594,2.681 15.369,7.497 l 0.265,0.193 0.219,0.478 c 0.389,0.554 0.759,1.138 1.093,1.781 -0.15,-0.142 -0.308,-0.269 -0.461,-0.407 l 4.159,9.051 0.22,1.374 c -0.188,-1.5 -0.402,-2.999 -0.638,-4.498 2.147,4.039 3.639,8.298 3.115,12.92 -0.866,7.639 1.746,13.289 8.806,16.685 1.366,0.657 1.979,1.814 2.204,3.302 l 0.437,0.274 0.657,5.91 c 0.72,3.289 1.601,6.544 2.353,9.828 1.691,7.383 6.141,13.739 7.295,21.247 l -0.002,10e-4 c 4.082,6.345 8.749,12.397 12.113,19.102 1.768,3.526 2.439,7.024 2.158,10.321 l 0.178,0.481 -0.299,0.554 c -0.823,5.528 -4.398,10.42 -10.231,13.796 -1.009,0.583 -2.023,1.163 -3.069,1.673 -0.734,0.358 -1.123,0.723 -1.247,1.094 l 0.167,0.833 c 0.201,0.294 0.53,0.59 0.993,0.885 3.598,2.293 7.519,3.861 11.7,4.61 2.155,0.385 4.03,-0.287 4.857,-2.701 1.066,-3.112 3.252,-4.032 6.199,-2.675 3.908,1.798 6.482,5.888 5.417,8.487 -0.311,0.759 -0.905,1.754 -1.574,1.955 -3.928,1.175 -2.126,3.008 -0.932,5.17 2.429,4.396 5.041,8.446 3.554,14.282 -2.764,10.85 -15.711,21.428 -26.647,20.274 l -0.38,0.127 -0.455,-0.227 c -2.409,-0.344 -4.883,0.747 -3.814,3.935 0.777,2.32 0.949,4.012 -1.469,5.049 -2.463,1.058 -5.13,2.033 -6.992,-0.962 -1.758,-2.828 -5.624,-5.702 -0.38,-8.909 0.284,-0.174 0.423,-0.741 0.458,-1.141 0.394,-4.44 -5.069,-11.555 -9.58,-12.339 -1.932,-0.335 -4.08,-0.428 -4.188,-2.914 -0.161,-3.732 -2.409,-6.589 -4.243,-9.338 -2.413,-3.618 -2.156,-6.008 1.076,-8.582 1.206,-0.96 2.784,-2.191 1.963,-3.986 -1.651,-3.606 -2.941,-7.456 -8.298,-7.454 -2.914,10e-4 -4.603,0.367 -4.683,3.437 -0.075,2.89 -1.132,5.383 -2.635,7.755 -0.096,0.126 -0.183,0.255 -0.274,0.383 l -0.687,2.29 -4.42,10.902 -0.447,0.448 c -0.802,1.772 -1.546,3.63 -1.995,5.567 l 0.38,6.067 0.551,3.312 c 0.057,0.117 0.104,0.232 0.164,0.35 1.463,2.846 2.087,7.119 -1.153,10.178 -0.001,-10e-4 -0.001,-10e-4 -0.001,-0.002 -3.617,1.951 -4.578,4.918 -4.556,9.016 0.167,31.018 0.226,62.038 0.062,93.056 -0.968,-0.223 -1.939,-0.448 -2.912,-0.677 -0.057,-29.601 -0.009,-59.201 -0.005,-88.801 0,-1.432 0.206,-2.993 -1.302,-3.935 -1.829,-1.144 -2.727,-2.87 -3.446,-4.71 -1.241,-0.855 -2.481,-1.71 -3.722,-2.565 -0.874,-0.603 -1.767,-1.185 -2.622,-1.816 -0.686,-0.508 -1.342,-1.086 -1.697,-1.879 -0.08,-0.178 -0.125,-0.358 -0.169,-0.538 l -0.114,-0.086 0.063,-0.106 c -0.283,-1.612 0.721,-3.278 1.43,-4.67 0.971,-1.902 2.011,-3.77 3.116,-5.597 0.864,-1.431 1.785,-2.827 2.728,-4.207 0.152,-3.364 -0.982,-6.572 -1.498,-9.938 -1.446,-9.431 -1.44,-19.2 0.97,-28.582 2.156,-8.393 -0.521,-16.024 -2.511,-23.84 -0.132,-0.516 -0.533,-1.061 -0.965,-1.388 -4.377,-3.32 -6.838,-7.693 -7.458,-13.145 -0.305,-2.682 -1.701,-4.871 -3.135,-7.111 -1.751,-2.735 -3.993,-5.326 -4.116,-8.805 -0.067,-0.197 -0.129,-0.396 -0.205,-0.586 -1.145,-2.843 -2.967,-5.368 -4.808,-7.796 -1.892,-2.496 -3.793,-4.976 -5.547,-7.573 -1.849,-2.74 -3.576,-5.562 -5.175,-8.454 -1.539,-2.786 -3.039,-5.637 -4.234,-8.589 -1.116,-2.758 -1.791,-5.808 -0.973,-8.741 0.713,-2.554 2.492,-4.585 5.057,-5.369 3.067,-0.939 6.633,-0.305 9.658,0.507 0.417,0.111 0.821,0.26 1.231,0.39 -1.719,-2.362 -4.045,-4.138 -6.962,-5.702 -5.797,-3.109 -34.096,-20.138 -43.24,-26.642 0.069,0.153 0.14,0.307 0.21,0.458 -3.543,-2.174 -5.724,-4.563 -6.582,-7.183 -36.808,23.798 -64.24,58.959 -70.258,105.38 -21.56,-94.591 -4.402,-185.746 39.257,-259.603 0,0 79.712,12.035 133.969,-43.59 3.204,-6.671 6.673,-13.379 10.645,-19.919 4.02,-6.791 8.429,-13.479 12.972,-20.144 3.706,-5.497 7.531,-10.981 11.031,-16.66 0.924,-2.539 1.823,-5.118 2.671,-7.784 0.305,0.567 0.62,1.121 0.934,1.674 l 0.069,-0.12 0.763,-1.313 0.191,-0.329 c 0.062,-0.214 0.132,0.094 0.197,0.143 l 0.4,0.643 1.597,2.614 0.948,1.583 c 0.486,0.883 1.108,1.68 1.682,2.507 0.599,0.811 1.133,1.672 1.784,2.445 1.296,1.55 2.538,3.154 3.989,4.577 1.362,1.507 2.889,2.853 4.398,4.22 3.1,2.636 6.371,5.11 9.902,7.192 3.477,2.166 7.178,3.969 10.954,5.577 7.588,3.144 15.602,5.3 23.737,6.306 8.133,1.075 16.366,1.072 24.467,0.467 16.235,-1.294 31.896,-5.231 46.765,-9.695 29.786,-8.963 56.323,-20.971 78.579,-31.976 4.427,-2.197 8.678,-4.36 12.76,-6.476 7.086,-4.057 11.417,-6.797 12.063,-7.241 1.169,-0.716 2.338,-1.433 3.506,-2.151 -0.012,0.436 -0.074,0.841 -0.173,1.223 0.637,-0.345 1.28,-0.693 1.905,-1.033 1.666,-0.911 3.117,-1.705 4.314,-2.358 0.916,-0.507 1.438,-0.796 1.438,-0.796 0,0 2.543,-1.411 5.034,-2.793 2.467,-1.389 4.487,-2.526 4.699,-2.645 4.058,-2.294 6.656,-3.807 0.139,-0.052 -3.848,2.211 -9.324,5.355 -9.324,5.355 0,0 -0.526,0.3 -1.449,0.826 -0.464,0.258 -1.027,0.574 -1.672,0.935 -1.677,0.929 -3.407,1.888 -5.183,2.87 -0.814,2.489 -3.274,3.961 -4.493,6.201 -3.798,3.818 -6.081,8.574 -8.281,13.381 -0.093,0.207 -0.164,0.421 -0.213,0.644 -3.587,6.734 -5.451,13.845 -4.821,21.534 0.2,2.443 0.185,4.903 0.283,7.356 0.148,3.725 1.707,4.991 5.418,4.181 2.353,-0.513 4.994,-0.283 6.836,-2.329 3.51,-2.628 13.257,-6.142 14.01,-6.685 V 14.644 C 67.708,14.586 93.236,5.86 95.992,1.288 c 3.302,-1.106 5.845,0.869 8.498,2.191 2.243,1.119 1.041,3.257 1.158,4.991 h 0.001 c 0.855,2.735 9.956,29.435 9.609,34.827 -0.122,1.886 4.656,13.038 6.055,15.331 0.824,1.351 1.941,2.209 3.446,0.883 5.454,-4.806 11.063,-9.479 14.545,-16.073 1.401,-1.441 5.513,-3.814 5.513,-3.814 0.014,1.121 -36.619,205.724 83.692,211.739 -87.226,129.334 12.431,234.47 12.431,234.47"
             style="fill:#08516f;fill-opacity:1;fill-rule:nonzero;stroke:none"
             id="path38"
             inkscape:connector-curvature="0" /></g><g
           id="g40"
           transform="translate(722.25,447.6309)"><path
             d="m 0,0 c 0,-9.585 -2.294,-16.629 -6.876,-21.127 -4.584,-4.5 -11.759,-6.75 -21.524,-6.75 h -19.432 -19.431 c -6.976,0 -13.952,0.648 -20.926,1.943 v 19.133 h 19.88 17.563 16.367 c 2.291,0 4.11,0.635 5.456,1.91 1.345,1.273 2.018,2.995 2.018,5.164 v 5.662 c 0,5.659 -2.99,8.489 -8.968,8.489 H -71.747 V 35.35 h 32.884 c 5.979,0 8.968,2.99 8.968,8.968 v 2.99 c 0,5.979 -2.989,8.968 -8.968,8.968 h -47.831 v 20.926 h 55.305 c 9.764,0 16.939,-2.219 21.524,-6.651 4.582,-4.436 6.875,-11.187 6.875,-20.254 0,-5.979 -1.37,-10.836 -4.11,-14.573 -2.742,-3.737 -6.353,-6.353 -10.837,-7.847 2.191,-0.589 4.384,-1.519 6.577,-2.789 2.191,-1.271 4.11,-2.983 5.755,-5.134 1.644,-2.153 2.989,-4.768 4.036,-7.85 C -0.523,9.021 0,5.477 0,1.467 Z"
             style="fill:#ffffff;fill-opacity:1;fill-rule:nonzero;stroke:none"
             id="path42"
             inkscape:connector-curvature="0" /></g><g
           id="g44"
           transform="translate(826.8804,420.2021)"><path
             d="M 0,0 H -26.905 V 64.273 L -62.778,0 h -28.4 v 104.631 h 26.905 V 40.358 l 35.874,64.273 H 0 Z"
             style="fill:#ffffff;fill-opacity:1;fill-rule:nonzero;stroke:none"
             id="path46"
             inkscape:connector-curvature="0" /></g><g
           id="g48"
           transform="translate(934.5,478.4971)"><path
             d="M 0,0 -20.927,-37.369 H -41.853 L -62.779,0 V -58.295 H -89.684 V 46.336 h 28.4 L -31.389,-8.969 -1.495,46.336 H 26.904 V -58.295 H 0 Z"
             style="fill:#ffffff;fill-opacity:1;fill-rule:nonzero;stroke:none"
             id="path50"
             inkscape:connector-curvature="0" /></g><g
           id="g52"
           transform="translate(1070.5186,420.2021)"><path
             d="M 0,0 H -26.905 V 42.6 H -64.273 V 0 h -26.905 v 104.631 h 26.905 V 63.526 h 37.368 v 41.105 H 0 Z"
             style="fill:#ffffff;fill-opacity:1;fill-rule:nonzero;stroke:none"
             id="path54"
             inkscape:connector-curvature="0" /></g><g
           id="g56"
           transform="translate(1112.3701,484.4756)"><path
             d="m 0,0 c 0,-5.979 2.989,-8.968 8.969,-8.968 h 29.894 v 28.4 H 8.969 C 2.989,19.432 0,16.442 0,10.463 Z M 65.768,-64.273 H 38.863 v 34.378 H 18.685 L 0,-64.273 h -28.399 l 19.43,35.874 c -6.378,1.494 -10.962,4.532 -13.751,9.118 -2.791,4.582 -4.184,11.009 -4.184,19.281 v 10.463 c 0,10.463 2.365,18.06 7.099,22.795 4.732,4.731 12.331,7.099 22.794,7.099 h 62.779 z"
             style="fill:#ffffff;fill-opacity:1;fill-rule:nonzero;stroke:none"
             id="path58"
             inkscape:connector-curvature="0" /></g><g
           id="g60"
           transform="translate(1219.9893,484.4756)"><path
             d="m 0,0 c 0,-5.979 2.988,-8.968 8.968,-8.968 h 29.894 v 28.4 H 8.968 C 2.988,19.432 0,16.442 0,10.463 Z M 65.768,-64.273 H 38.862 v 34.378 H 18.684 L 0,-64.273 h -28.4 l 19.431,35.874 c -6.379,1.494 -10.963,4.532 -13.752,9.118 -2.791,4.582 -4.184,11.009 -4.184,19.281 v 10.463 c 0,10.463 2.365,18.06 7.099,22.795 4.732,4.731 12.331,7.099 22.794,7.099 h 62.78 z"
             style="fill:#ffffff;fill-opacity:1;fill-rule:nonzero;stroke:none"
             id="path62"
             inkscape:connector-curvature="0" /></g><g
           id="g64"
           transform="translate(696.7852,326.5537)"><path
             d="M 0,0 C 0,5.706 -2.854,8.56 -8.56,8.56 H -37.093 V -11.414 H -8.56 c 5.706,0 8.56,2.853 8.56,8.56 z m -4.28,39.945 c 0,5.707 -2.854,8.56 -8.56,8.56 H -37.093 V 28.532 h 24.253 c 5.706,0 8.56,2.854 8.56,8.561 z m -58.493,28.534 h 57.066 c 9.321,0 16.169,-2.119 20.544,-6.349 4.373,-4.234 6.563,-10.678 6.563,-19.331 0,-5.706 -1.238,-10.343 -3.709,-13.91 -2.474,-3.566 -5.518,-6.063 -9.131,-7.49 2.091,-0.571 4.184,-1.475 6.277,-2.711 2.091,-1.237 3.923,-2.902 5.492,-4.993 1.57,-2.093 2.854,-4.636 3.852,-7.633 1,-2.995 1.499,-6.444 1.499,-10.342 0,-9.323 -2.19,-16.17 -6.563,-20.544 -4.375,-4.376 -11.223,-6.563 -20.544,-6.563 h -61.346 z"
             style="fill:#ffffff;fill-opacity:1;fill-rule:nonzero;stroke:none"
             id="path66"
             inkscape:connector-curvature="0" /></g><g
           id="g68"
           transform="translate(850.8623,295.167)"><path
             d="M 0,0 H -25.68 V 61.346 L -59.919,0 h -27.107 v 99.865 h 25.68 V 38.52 l 34.239,61.345 H 0 Z"
             style="fill:#ffffff;fill-opacity:1;fill-rule:nonzero;stroke:none"
             id="path70"
             inkscape:connector-curvature="0" /></g><g
           id="g72"
           transform="translate(1022.0596,295.167)"><path
             d="m 0,0 h -125.546 v 99.865 h 25.68 V 19.973 h 24.252 v 79.892 h 25.68 V 19.973 H -25.68 V 99.865 H 0 Z"
             style="fill:#ffffff;fill-opacity:1;fill-rule:nonzero;stroke:none"
             id="path74"
             inkscape:connector-curvature="0" /></g><g
           id="g76"
           transform="translate(1154.7363,295.167)"><path
             d="M 0,0 H -25.68 V 40.659 H -61.346 V 0 h -25.679 v 99.865 h 25.679 V 60.633 H -25.68 V 99.865 H 0 Z"
             style="fill:#ffffff;fill-opacity:1;fill-rule:nonzero;stroke:none"
             id="path78"
             inkscape:connector-curvature="0" /></g><g
           id="g80"
           transform="translate(1223.2158,356.5127)"><path
             d="M 0,0 C 0,-5.706 2.854,-8.56 8.56,-8.56 H 37.092 V 18.546 H 8.56 C 2.854,18.546 0,15.693 0,9.986 Z M 62.771,-61.346 H 37.092 v 32.813 H 17.833 L 0,-61.346 h -27.106 l 18.545,34.24 c -6.086,1.426 -10.462,4.327 -13.125,8.703 -2.663,4.374 -3.994,10.507 -3.994,18.403 v 9.986 c 0,9.988 2.259,17.239 6.777,21.757 4.516,4.517 11.769,6.777 21.757,6.777 h 59.917 z"
             style="fill:#ffffff;fill-opacity:1;fill-rule:nonzero;stroke:none"
             id="path82"
             inkscape:connector-curvature="0" /></g><g
           id="g84"
           transform="translate(1111.2754,583.9985)"><path
             d="m 0,0 -2.704,64.024 43.817,34.824 24.884,-10.31 17.312,22.358 -52.32,-4.186 46.411,81.242 60.628,3.548 27.797,38.652 7.282,-15.489 -11.901,-141.501 38.949,2.164 26.507,-51.265 -24.884,-57.06 -89.855,-0.178 -9.553,22.869 -19.061,-21.067 z"
             style="fill:#051b25;fill-opacity:1;fill-rule:nonzero;stroke:none"
             id="path86"
             inkscape:connector-curvature="0" /></g><g
           id="g88"
           transform="translate(1259.5459,767.1421)"><path
             d="m 0,0 -63.982,-7.432 -38.585,-59.606 47.149,8.237 32.493,19.238 z"
             style="fill:#579532;fill-opacity:1;fill-rule:nonzero;stroke:none"
             id="path90"
             inkscape:connector-curvature="0" /></g><g
           id="g92"
           transform="translate(1157.0586,700.2856)"><path
             d="m 0,0 c -0.08,-0.182 37.914,42.39 37.914,42.39 l 64.573,24.466 c -0.048,-0.211 -0.103,-0.415 -0.152,-0.62 z"
             style="fill:#9ac130;fill-opacity:1;fill-rule:nonzero;stroke:none"
             id="path94"
             inkscape:connector-curvature="0" /></g><g
           id="g96"
           transform="translate(1277.2715,799.7432)"><path
             d="m 0,0 -17.768,-30.563 c 0,0 -97.144,-136.979 -96.688,-138.52 0.345,-1.14 101.69,134.435 101.69,134.435 1.82,0.736 -5.022,-135.718 -4.564,-136.366 C -16.404,-172.327 -3.167,-10.402 0,0"
             style="fill:#683c13;fill-opacity:1;fill-rule:nonzero;stroke:none"
             id="path98"
             inkscape:connector-curvature="0" /></g><g
           id="g100"
           transform="translate(1232.3662,564.0781)"><path
             d="M 0,0 C 3.98,-2.311 60.51,-13.237 72.564,29.141 80.025,55.347 64.657,75.363 58.063,81.548 L 38.94,79.875 3.415,81.829 -2.404,70.928 c 1.662,1.309 3.582,2.501 5.803,3.592 8.762,4.307 13.226,2.469 17.084,0.657 C 17.357,74.225 14.365,72.83 11.97,70.56 9.235,67.967 7.877,64.388 7.169,60.767 6.214,55.968 6.237,51.026 5.971,46.159 5.806,43.227 5.521,40.267 4.541,37.476 3.486,34.483 1.415,32.32 -1.299,30.763 -2.805,29.9 -4.502,29.402 -6.229,29.066 c -3.087,5.27 -4.924,11.366 -5.083,17.9 -0.072,2.896 0.045,5.529 0.36,7.952 L -18.721,40.369 -0.431,-1.295 1.812,-1.644 C 1.085,-1.046 0.37,-0.435 -0.326,0.198 -0.217,0.133 -0.116,0.066 0,0"
             style="fill:#bb1622;fill-opacity:1;fill-rule:nonzero;stroke:none"
             id="path102"
             inkscape:connector-curvature="0" /></g><g
           id="g104"
           transform="translate(1221.0547,611.0439)"><path
             d="m 0,0 c 0.158,-6.534 1.995,-12.629 5.082,-17.9 1.728,0.337 3.425,0.835 4.931,1.697 2.714,1.557 4.785,3.721 5.84,6.713 0.979,2.791 1.264,5.751 1.429,8.683 0.267,4.868 0.243,9.809 1.198,14.608 0.708,3.621 2.067,7.2 4.801,9.793 2.396,2.27 5.388,3.665 8.514,4.617 -3.858,1.812 -8.322,3.65 -17.084,-0.657 -2.222,-1.091 -4.142,-2.283 -5.804,-3.592 L 0.359,7.952 C 0.045,5.529 -0.072,2.896 0,0"
             style="fill:#bb1622;fill-opacity:1;fill-rule:nonzero;stroke:none"
             id="path106"
             inkscape:connector-curvature="0" /></g><g
           id="g108"><g
             id="g110" /><g
             id="g122"><g
               clip-path="url(#clipPath114)"
               id="g120"><g
                 transform="translate(1228.0068,608.6128)"
                 id="g118"><path
                   d="m 0,0 c 0.158,-6.534 1.995,-12.629 5.082,-17.9 1.728,0.337 3.425,0.835 4.931,1.697 2.714,1.557 4.785,3.721 5.84,6.713 0.979,2.791 1.264,5.751 1.429,8.683 0.267,4.868 0.243,9.809 1.198,14.608 0.708,3.621 2.067,7.2 4.801,9.793 2.396,2.27 5.388,3.665 8.514,4.617 -3.858,1.812 -8.322,3.65 -17.084,-0.657 -2.222,-1.091 -4.142,-2.283 -5.804,-3.592 L 0.359,7.952 C 0.045,5.529 -0.072,2.896 0,0"
                   style="fill:#ffffff;fill-opacity:1;fill-rule:nonzero;stroke:none"
                   id="path116"
                   inkscape:connector-curvature="0" /></g></g></g></g><g
           id="g124"
           transform="translate(1308.0615,564.7427)"><path
             d="M 0,0 17.877,42.482 -1.01,82.338 -17.632,80.883 c 6.594,-6.184 21.962,-26.2 14.501,-52.407 -12.055,-42.377 -68.584,-31.452 -72.564,-29.141 -0.117,0.066 -0.217,0.133 -0.326,0.198 0.696,-0.632 1.411,-1.244 2.137,-1.841 0,0 68.851,-2.382 73.884,2.308"
             style="fill:#8c101a;fill-opacity:1;fill-rule:nonzero;stroke:none"
             id="path126"
             inkscape:connector-curvature="0" /></g><g
           id="g128"
           transform="translate(1121.0381,596.0249)"><path
             d="m 0,0 c 2.848,-3.616 51.361,-34.622 78.196,0.321 16.601,21.607 9.7,45.881 5.852,54.061 l -18.392,5.498 -32.3,14.919 -9.429,-7.985 c 2.027,0.603 4.252,1.003 6.719,1.198 9.733,0.771 13.204,-2.583 16.122,-5.691 -3.257,0.268 -6.553,0.076 -9.617,-1.151 C 33.654,59.769 31.07,56.943 29.077,53.838 26.419,49.729 24.618,45.128 22.575,40.702 21.34,38.038 19.983,35.392 18.044,33.158 15.959,30.767 13.236,29.52 10.14,29.073 8.422,28.827 6.661,28.99 4.931,29.314 4.006,35.352 4.546,41.695 6.809,47.827 c 1.002,2.718 2.082,5.122 3.267,7.259 L -2.511,44.428 -0.878,-1.044 1.078,-2.195 C 0.622,-1.373 0.184,-0.54 -0.229,0.304 -0.152,0.204 -0.084,0.104 0,0"
             style="fill:#bb1622;fill-opacity:1;fill-rule:nonzero;stroke:none"
             id="path130"
             inkscape:connector-curvature="0" /></g><g
           id="g132"
           transform="translate(1127.8467,643.8516)"><path
             d="m 0,0 c -2.263,-6.131 -2.803,-12.475 -1.878,-18.512 1.731,-0.325 3.491,-0.488 5.209,-0.241 3.097,0.446 5.819,1.693 7.904,4.085 1.94,2.233 3.296,4.879 4.532,7.543 2.043,4.427 3.843,9.028 6.502,13.137 1.993,3.105 4.577,5.93 8.074,7.331 3.063,1.227 6.359,1.419 9.616,1.152 -2.918,3.107 -6.389,6.462 -16.122,5.69 -2.467,-0.194 -4.691,-0.594 -6.719,-1.197 L 3.268,7.259 C 2.082,5.122 1.002,2.719 0,0"
             style="fill:#bb1622;fill-opacity:1;fill-rule:nonzero;stroke:none"
             id="path134"
             inkscape:connector-curvature="0" /></g><g
           id="g136"><g
             id="g138" /><g
             id="g150"><g
               clip-path="url(#clipPath142)"
               id="g148"><g
                 transform="translate(1133.4121,639.0278)"
                 id="g146"><path
                   d="m 0,0 c -2.263,-6.131 -2.804,-12.475 -1.878,-18.513 1.73,-0.324 3.491,-0.487 5.209,-0.24 3.097,0.446 5.819,1.692 7.904,4.085 1.94,2.233 3.296,4.878 4.532,7.543 2.043,4.426 3.843,9.028 6.502,13.137 1.993,3.104 4.576,5.93 8.074,7.331 3.063,1.227 6.358,1.419 9.616,1.152 -2.918,3.107 -6.389,6.461 -16.122,5.69 -2.468,-0.194 -4.691,-0.594 -6.72,-1.198 L 3.268,7.259 C 2.082,5.122 1.002,2.719 0,0"
                   style="fill:#ffffff;fill-opacity:1;fill-rule:nonzero;stroke:none"
                   id="path144"
                   inkscape:connector-curvature="0" /></g></g></g></g><g
           id="g152"
           transform="translate(1191.6406,568.7231)"><path
             d="M 0,0 32.287,32.893 29.433,76.905 13.445,81.684 C 17.293,73.503 24.194,49.23 7.594,27.623 -19.241,-7.32 -67.755,23.686 -70.603,27.302 c -0.084,0.104 -0.152,0.203 -0.229,0.304 0.413,-0.844 0.852,-1.677 1.308,-2.5 0,0 63.117,-27.609 69.524,-25.106"
             style="fill:#8c101a;fill-opacity:1;fill-rule:nonzero;stroke:none"
             id="path154"
             inkscape:connector-curvature="0" /></g></g></g></g></svg>